<svg width="918" height="563" viewBox="0 0 918 563" fill="none" xmlns="http://www.w3.org/2000/svg">
<g filter="url(#filter0_d_1995_64)">
<path d="M469.625 47.5H474L475.25 48.125L474.625 53.75L465.25 74.375L456.5 93.75L449 111.875L442.75 127.5L443.375 128.125L450.25 118.75L457.75 110L465.25 103.75L470.875 101.875L477.125 102.5L479.625 105V111.25L472.125 133.75L467.125 150L466.5 154.375L467.125 155.625L471.5 155L475.875 151.25H477.125L478.375 148.75L484 142.5L487.125 138.75L489 138.125L490.875 140L491.5 141.875V148.75L487.75 155.625L479 164.375L470.25 168.75L467.125 169.375H460.25L456.5 167.5L453.375 163.75L452.75 161.875V151.25L455.25 141.875L459.625 129.375L463.375 120L460.25 123.125L454 131.25L448.375 139.375L432.125 163.75L426.5 171.875L423.375 174.375H415.875L409 176.25H404L400.25 174.375L397.125 170L395.875 166.875L395.25 160H394L392.75 163.125L387.125 170L381.5 175.625L374.625 180L372.125 180.625H365.25L360.25 178.125L359 176.875L356.5 177.5L352.125 181.875L347.75 184.375L344 185H337.125L331.5 183.75L327.75 179.375L326.5 175.625V167.5L328.375 158.75L336.5 141.875L340.875 133.125L337.125 135.625L329.625 144.375L323.375 152.5L315.875 163.125L309.625 172.5L302.125 185.625L299 188.75H290.875L289 187.5L290.25 181.875L297.75 163.75L304.625 146.875L306.5 141.875L307.125 138.125L302.75 139.375L297.125 145.625L289.625 155.625L283.375 165L277.75 175L271.5 187.5L267.75 192.5L263.375 193.125L256.5 193.75L253.375 196.25L249 197.5H242.125L238.375 195.625L235.25 190.625L234.625 189.375V179.375L232.75 181.875L227.125 190L222.125 196.25L215.875 201.25L210.875 203.125H203.375L199 206.875L196.5 208.125H190.875L184.625 205L177.75 199.375L169.625 191.875L162.125 185L156.5 178.75L144.625 166.875L143.375 166.25L142.125 170L131.5 193.125L125.25 207.5L123.375 210L120.875 210.625H112.125L110.25 209.375L109.625 205.625L113.375 194.375L120.25 179.375L130.25 159.375L139.625 141.25L150.25 120.625L155.25 112.5L159 108.125L153.375 110L140.25 115.625L131.5 120.625L124.625 126.25L121.5 129.375H120.25V130.625H124.625L125.875 132.5L122.125 137.5L115.25 141.25L109 141.875L105.875 140L103.375 136.875L102.75 131.25L105.25 125.625L109.625 120L115.25 114.375L125.875 107.5L135.875 102.5L147.75 97.5L162.125 93.75L172.75 92.5H184.625L192.75 93.75L199 96.25L204 100L208.375 105L210.25 110V118.75L208.375 124.375L204 131.25L196.5 139.375L187.125 146.875L177.75 152.5L167.75 157.5L161.5 160H160.25L162.125 163.125L169 170L174 174.375L179.625 180L184.625 184.375L192.125 190.625L198.375 194.375L199 186.25L200.25 180L205.25 165.625L212.75 148.125L216.5 140.625L219 138.125H224L227.125 141.25L225.25 148.125L215.875 173.75L212.75 184.375V186.25L215.875 185.625L220.875 180L228.375 170L237.125 156.875L242.75 146.875L247.75 136.25L250.875 133.125L255.875 130.625H260.25L260.875 133.125L259.625 139.375L251.5 160.625L247.75 174.375L247.125 178.125V183.75L250.25 184.375L254.625 181.875L259.625 175.625L263.375 170L270.875 151.25L278.375 134.375L281.5 129.375L286.5 126.25L291.5 125.625L293.375 126.875L292.75 131.875L288.375 140.625L298.375 130.625L305.25 125.625L309.625 123.75H315.25L318.375 125.625L319.625 129.375V139.375L325.25 132.5L332.75 124.375L338.375 120L345.25 116.875L347.75 116.25H352.75L357.125 118.75L357.75 120V125L352.125 138.125L344.625 154.375L340.875 163.125L339.625 169.375L340.25 172.5L344.625 171.875L350.25 168.125L354.625 163.125L359 149.375L363.375 140.625L369.625 132.5L375.875 125.625L382.125 120.625L390.875 116.25L397.125 114.375L402.125 115L405.25 116.875L407.75 116.25L409.625 114.375L411.5 113.75H416.5L419 115.625L418.375 121.25L412.125 137.5L409 148.125L407.75 156.25V161.875L408.375 163.125L412.125 162.5L417.125 158.125L421.5 153.125L424 148.125L431.5 125.625L436.5 112.5L445.25 90L455.875 64.375L460.875 54.375L462.75 51.25L467.75 48.125L469.625 47.5ZM172.125 104.375L163.375 106.25L162.75 107.5L167.125 109.375L168.375 111.25L167.75 116.875L162.75 127.5L156.5 139.375L152.125 148.125V149.375L157.75 148.125L167.75 143.125L174.625 138.75L181.5 133.125L186.5 128.75L192.125 121.875L195.875 115.625L196.5 110.625L195.25 108.125L187.75 104.375H172.125ZM399 124.375L392.125 128.125L384.625 135L379 141.25L373.375 150L369 160L367.75 165.625L369.625 167.5L372.75 166.25L377.75 161.875L382.75 156.875L388.375 150L394 141.875L402.75 126.25V124.375H399Z" fill="#FEFEFE"/>
<path d="M726.5 212.5L730.875 213.125L735.25 215.625L737.125 219.375V226.875L732.75 240L727.125 252.5L718.375 268.75L710.25 282.5L702.125 295.625L695.875 305L692.75 310L691.5 317.5L692.75 321.875L695.875 323.75L699 324.375L705.875 321.875L711.5 316.875L714 305L718.375 295L723.375 287.5L730.25 280L736.5 273.75L744.625 268.75L750.25 266.875H759L763.375 268.75L768.375 265H773.375L775.875 268.125L775.25 272.5L770.25 285L766.5 296.25L764.625 306.875V313.75L765.25 315L768.375 314.375L773.375 310L777.75 305L786.5 283.75L792.125 270.625L794.625 265L798.375 259.375L803.375 256.25L809 255.625L809.625 256.25V263.125L807.75 268.75L809.625 268.125L810.875 265.625L817.125 259.375L823.375 255L828.375 253.125H834.625L838.375 256.25V263.125L835.25 271.25L828.375 285L821.5 301.25V306.875L822.125 307.5H827.125L834 302.5L837.125 298.75L839.625 290.625L845.25 278.75L850.875 270.625L856.5 264.375L861.5 259.375L869.625 253.125L879 248.125L885.875 246.25H890.25L894 246.875L900.875 243.125L906.5 243.75L907.125 244.375V248.75L904 255.625L893.375 277.5L885.25 295.625L882.125 305L885.25 302.5L889.625 297.5L895.25 291.875L907.125 283.125L908.375 282.5H912.125L912.75 283.125L913.375 290.625L911.5 293.75L902.75 301.25L895.875 307.5L890.875 311.875L882.125 320.625L875.25 329.375L866.5 343.125L860.25 355.625L857.125 360L852.75 361.875L847.75 361.25L844 358.125L842.75 353.75V349.375L845.875 340.625L850.875 333.125L856.5 326.25L862.75 318.75L867.75 310L872.75 300V297.5L865.25 305.625L856.5 312.5L849.625 315L844 314.375L840.25 311.875L837.75 312.5L831.5 317.5L826.5 319.375H818.375L813.375 316.875L810.875 313.75L809.625 308.75V303.75L811.5 295L815.25 285L822.125 270.625L822.75 268.125L820.25 268.75L819 271.25L812.75 278.125L804.625 288.75L799 296.875L792.125 307.5L786.5 316.875L783.375 321.875L780.875 323.125L775.25 323.75L769.625 326.875L767.75 327.5H759.625L756.5 325.625L754 322.5L752.75 320L752.125 311.25L749.625 313.75L744.625 320.625L736.5 328.75L730.875 331.875L729.625 332.5H722.125L714.625 328.75L707.75 333.75L699.625 336.875H688.375L684.625 334.375L681.5 330.625L679 322.5L678.375 317.5V309.375L680.875 293.125L683.375 283.75L687.125 271.25L691.5 259.375L697.125 247.5L702.75 238.125L709 228.125L714.625 221.25L717.75 217.5L724 213.75L726.5 212.5ZM723.375 225.625L719.625 230L712.75 241.25L704.625 256.25L698.375 269.375L694.625 280.625L693.375 288.125L695.875 286.875L702.125 276.25L705.875 269.375L714 253.75L719.625 243.125L724.625 230L725.25 226.25L723.375 225.625ZM887.125 255.625L878.375 260L870.25 266.25L866.5 269.375L862.125 274.375L857.75 280.625L852.125 290.625L850.25 296.25V301.875L852.125 302.5L857.125 298.125L866.5 288.125L872.125 281.25L880.25 270L885.25 262.5L888.375 257.5V255.625H887.125ZM757.125 275.625L750.875 278.125L744.625 283.125L738.375 289.375L732.75 297.5L726.5 309.375L725.25 313.125V318.75L727.75 319.375L732.125 315.625L736.5 310.625L742.125 305L748.375 296.875L755.875 283.75L759 277.5V275.625H757.125Z" fill="#FEFEFE"/>
<path d="M797.125 63.125H802.75L805.25 65L804.625 69.375L799 83.75L794 101.25L793.375 110L794.625 112.5L798.375 111.875L804.625 106.25L812.75 95.625H814.625L816.5 101.25V106.25L814 111.25L808.375 118.125L802.75 123.125L797.125 125.625H789L785.875 123.75L783.375 120.625L782.125 118.125V108.125L779.625 110.625L774.625 117.5L767.75 125L762.125 128.75L759 130H750.25L746.5 127.5L744 124.375L742.75 122.5L739.625 123.75L731.5 129.375L720.875 134.375L712.75 136.25H703.375L697.125 134.375L691.5 130.625L689 131.875L682.75 138.125L676.5 141.25L674 141.875H669.625L664.625 138.75L662.125 135.625L661.5 133.75L660.875 124.375L658.375 126.875L653.375 133.75L647.75 140L641.5 144.375L635.875 146.25H630.875L626.5 144.375L622.75 140L621.5 136.25V125.625L622.75 117.5L627.75 107.5L632.125 101.25L637.75 94.375L644 88.125L650.875 83.75L657.125 81.25L660.25 80.625H667.125L672.125 82.5L674.625 80L676.5 79.375H681.5L684.625 80.625L684 85.625L679 97.5L675.25 109.375L673.375 117.5V128.125L675.875 128.75L680.875 125.625L685.25 120.625L687.125 112.5L689 103.125L694 93.125L698.375 86.25L707.75 76.875L715.875 71.875L723.375 68.75L729 67.5L735.25 68.125L739 70.625L740.875 73.75V80.625L738.375 86.875L733.375 92.5L732.125 93.125H728.375L725.25 90L725.875 85.625L728.375 79.375L722.75 80.625L717.125 85L710.875 90.625L704 100L700.875 107.5L700.25 110V118.125L702.75 123.125L703.375 123.75H715.25L724.625 120.625L734 115.625L740.25 110.625L742.125 108.125L744 100.625L749 90.625L754.625 83.125L761.5 75.625L766.5 71.25L772.75 67.5L779.625 65L782.125 64.375H786.5L792.75 66.25L795.25 63.75L797.125 63.125ZM785.25 73.125L777.125 78.125L769 85.625L762.75 93.75L757.125 104.375L754.625 111.25V116.875L757.75 116.25L765.25 109.375L770.25 104.375L778.375 93.75L784.625 82.5L788.375 75.625V73.125H785.25ZM664.625 89.375L657.125 93.125L649.625 100L644 106.25L638.375 115.625L635.25 122.5L633.375 129.375L634 132.5L637.125 131.875L642.125 127.5L650.25 119.375L657.75 109.375L663.375 99.375L667.75 91.875V89.375H664.625Z" fill="#FEFEFE"/>
<path d="M590.25 36.25H608.375L615.875 38.125L620.875 40.625L624 43.125L627.125 47.5L629 53.75V59.375L627.125 65.625L622.75 73.125L612.125 83.75L602.125 90.625L597.125 93.75L597.75 94.375L606.5 95.625L614 98.75L619.625 103.75L622.125 108.75L622.75 116.25L619.625 124.375L614.625 131.25L610.875 135.625L604.625 140.625L596.5 145.625L589.625 148.75L581.5 151.25L569.625 152.5L560.875 151.875L554.625 149.375L550.875 146.25L547.75 143.125L547.125 148.125L544 155.625L541.5 157.5H534.625L532.125 155V147.5L534.625 139.375L540.875 124.375L557.75 86.875L567.75 65.625L572.125 59.375L576.5 57.5L579.625 56.875H584.625V61.25L574.625 83.75L570.25 92.5V93.75L575.25 91.25L584.625 86.25L595.875 78.75L604 71.875L609.625 66.25L612.75 60.625L613.375 59.375V54.375L610.875 51.25L605.25 49.375H595.875L587.125 50.625L576.5 53.75L566.5 58.75L557.75 64.375L550.875 70L549.625 71.875L550.25 77.5L546.5 80.625L544 81.25H537.75L534.625 79.375L533.375 76.25V70.625L535.875 65L540.25 59.375L545.25 55L552.75 49.375L564.625 43.125L579.625 38.125L590.25 36.25ZM587.75 104.375L564 108.75L561.5 110L554 129.375L554.625 131.25L560.25 129.375L564.625 128.75L563.375 135L565.25 138.125H577.125L588.375 134.375L595.25 130L601.5 124.375L605.875 119.375L608.375 114.375L607.75 111.25L603.375 107.5L595.875 105L587.75 104.375Z" fill="#FEFEFE"/>
<path d="M112.75 298.75H133.375L142.75 300.625L150.25 303.75L157.125 308.125L162.125 313.125L165.875 320L168.375 330V337.5L166.5 347.5L163.375 355.625L158.375 365L150.25 375.625L138.375 387.5L130.25 393.75L120.875 400L112.125 405L102.125 409.375L93.375 412.5L77.75 415.625H67.125L62.75 413.125L60.875 410V401.25L64.625 390L72.125 373.75L82.75 351.875L91.5 335L96.5 325L101.5 316.875L104.625 314.375L112.125 312.5L115.875 313.125V317.5L110.875 327.5L99.625 351.25L87.75 376.25L77.75 396.875L75.875 401.25H82.75L94 398.125L107.125 391.875L117.125 385.625L125.875 378.125L132.125 372.5L138.375 365.625L144.625 356.875L147.125 352.5L150.875 344.375L152.125 334.375L150.875 328.125L148.375 323.125L145.25 319.375L139 315.625L133.375 313.125L127.125 311.875H115.25L102.75 314.375L91.5 318.125L84.625 321.875L77.125 327.5L75.25 330L76.5 331.25L75.875 334.375L70.25 339.375L67.125 340.625H60.875L57.75 338.125L57.125 336.25V331.25L59.625 325.625L64 320L68.375 315.625L77.75 309.375L87.125 305L99 301.25L112.75 298.75Z" fill="#FEFEFE"/>
<path d="M394 310H399.625L403.375 313.125L404 318.125L401.5 326.25L393.375 343.75L389.625 352.5L387.75 357.5V363.75L390.25 364.375L395.875 362.5L402.125 356.875L409.625 348.125L412.125 346.875L414 350L414.625 351.875V356.25L412.125 360.625L406.5 367.5L399 373.75L394 376.25L387.75 377.5L382.75 376.25L378.375 373.75L375.875 369.375L375.25 362.5L376.5 353.75L379.625 344.375L387.125 328.125V326.25L383.375 329.375L373.375 341.875L364.625 353.75L357.75 364.375L349.625 378.125L347.125 380.625H339.625L332.125 385L329.625 385.625H325.25L319.625 383.75L317.125 380L316.5 376.875L317.125 366.25L315.25 366.875L309.625 376.25L302.75 384.375L297.125 388.75L292.125 390.625L285.875 390L282.125 387.5L279.625 382.5V375.625L283.375 362.5L291.5 341.25L295.875 331.25L298.375 327.5L300.25 325.625H304.625L307.125 326.875V333.125L302.75 345.625L297.125 361.25L294 371.875V374.375L298.375 371.875L305.875 363.125L315.875 348.75L320.875 340.625L329.625 323.125L334.625 319.375L337.75 318.125L341.5 318.75L342.125 319.375V323.75L337.75 335.625L332.75 348.75L329 361.875L328.375 365V371.875H332.125L337.125 368.125L344 358.75L350.875 343.75L358.375 325.625L362.75 317.5L365.875 315L370.25 313.125H374L375.875 314.375L374.625 320L372.125 328.125L376.5 323.125L381.5 317.5L388.375 312.5L394 310Z" fill="#FEFEFE"/>
<path d="M269.625 323.125H277.75L281.5 325L283.375 328.125V333.125L281.5 336.875L275.875 341.875L272.75 343.125H268.375L265.875 341.25L265.25 337.5L255.25 341.875L246.5 348.75L241.5 354.375V356.25L263.375 359.375L270.875 362.5L274.625 365.625L276.5 370L275.875 375L272.75 380.625L270.25 383.75L263.375 388.75L254.625 393.75L246.5 396.25L240.25 397.5H235.875L229.625 395L226.5 391.25V390L221.5 394.375L217.125 398.125L210.875 401.25H205.25L199.625 398.125L197.75 395.625L196.5 390.625V386.25L197.125 382.5L194 385.625L189.625 392.5L182.75 400L177.75 404.375L173.375 406.25H167.75L164 403.75L162.125 401.875L160.875 397.5V391.25L163.375 380L167.125 368.75L172.75 355.625L177.125 345.625L180.25 341.25H185.875L188.375 343.75L187.75 350L179 374.375L175.25 385.625V389.375L177.75 388.75L185.25 380L193.375 368.75L199.625 359.375L202.75 354.375L209 340.625L212.75 336.25L217.75 334.375H222.75L223.375 335L222.75 340.625L215.25 358.75L210.875 371.875L209 380.625V386.875L209.625 388.125L212.75 387.5L217.75 383.75L222.75 377.5L227.125 371.875H229.625L231.5 375L237.75 383.75H243.375L254 380L260.25 376.25L261.5 373.125L257.75 371.25L244 370L232.125 366.875L229 363.125L228.375 360V355.625L230.875 348.75L235.25 343.125L240.875 337.5L250.25 331.25L260.25 326.25L266.5 323.75L269.625 323.125Z" fill="#FEFEFE"/>
<path d="M605.875 228.75H612.125L612.75 230.625L609.625 239.375L599.625 260L590.875 279.375L587.75 287.5L594.625 284.375L600.25 283.125H605.875L610.875 285L613.375 288.125L615.25 292.5V301.875L612.125 312.5L607.125 322.5L602.125 330L597.125 336.25L591.5 342.5L586.5 346.875L580.25 350.625L574 353.125H569.625L565.875 351.25L561.5 347.5L558.375 348.75L552.75 353.75L546.5 356.875L544 357.5H535.875L529.625 354.375L526.5 350.625L525.875 349.375V340.625L529.625 329.375L537.125 312.5L536.5 308.75L534.625 307.5L535.25 304.375L539.625 297.5L545.875 291.25L550.25 289.375L554 290L557.125 293.125V297.5L552.125 310L544.625 328.125L540.25 339.375V344.375H545.25L550.25 341.25L553.375 338.75L558.375 331.875L560.25 327.5L562.125 320L569.625 297.5L575.875 282.5L585.25 261.25L592.75 245.625L599 233.75L604 229.375L605.875 228.75ZM597.75 295.625L584 301.875L580.875 303.75L578.375 308.75L572.75 324.375L570.875 332.5V338.75L572.125 340.625L576.5 340L582.125 335.625L589.625 328.125L595.875 319.375L600.25 310.625L601.5 305V300L599.625 295.625H597.75Z" fill="#FEFEFE"/>
<path d="M519.625 245H532.125L537.125 247.5L540.875 252.5L541.5 254.375V260L537.125 270L529.625 280.625L522.75 288.125L516.5 293.75L510.25 296.875L504.625 296.25L500.875 293.75L499 289.375L502.125 286.25L507.75 283.75L516.5 275L521.5 268.125L524.625 262.5L525.25 259.375L524.625 258.125L519 258.75L512.75 261.25L503.375 267.5L497.125 272.5L490.875 278.125L485.875 283.125L479 291.875L472.75 301.25L467.125 311.875L462.75 323.75L460.25 335V340.625L462.75 347.5L464.625 349.375L467.125 350H472.75L478.375 348.75L488.375 343.125L497.125 336.25L507.75 326.25L514.625 318.75L519.625 311.875H522.125V326.875L518.375 333.75L510.25 343.125L502.75 350L493.375 356.25L482.75 361.25L474.625 363.125H464L457.75 360.625L451.5 355L448.375 350L446.5 343.75L445.875 338.125V332.5L447.75 321.25L451.5 310L456.5 299.375L462.125 290L468.375 281.25L475.25 273.125L482.75 265.625L491.5 258.75L497.75 254.375L506.5 249.375L514.625 246.25L519.625 245Z" fill="#FEFEFE"/>
<path d="M720.25 155.625H726.5L728.375 157.5V160.625L725.25 162.5L700.25 165L665.875 167.5L630.25 171.875L591.5 178.125L544 185.625L485.875 195.625L439.625 201.875L374.625 210L344.625 213.125L325.875 215.625H320.25L321.5 214.375L329 211.875L400.25 200L414 197.5L467.75 189.375L499.625 184.375L525.25 180.625L589.625 172.5L625.875 167.5L676.5 160.625L702.75 157.5L720.25 155.625Z" fill="#FEFEFE"/>
<path d="M824 343.75H834L834.625 344.375V348.75L832.125 350L800.875 353.125L768.375 355.625L734 360L699 365.625L658.375 371.875L619.625 378.125L582.125 384.375L479 397.5L423.375 403.75L421.5 403.125L424.625 401.875L444 398.125L502.75 388.125L540.875 381.875L579 376.25L626.5 368.75L659 365L698.375 360L755.25 351.875L774.625 349.375L810.875 345L824 343.75Z" fill="#FEFEFE"/>
<path d="M651.5 276.875H659.625L669 278.75L672.125 281.25L673.375 284.375V294.375L670.875 303.125L663.375 317.5L657.125 326.25L650.25 333.75L645.875 338.125L638.375 343.125L632.75 345H625.25L621.5 343.125L618.375 340L616.5 335.625L615.875 332.5V321.875L618.375 312.5L623.375 302.5L629.625 293.75L635.25 287.5L642.125 281.25L645.875 278.75L651.5 276.875ZM652.75 287.5L646.5 292.5L642.125 296.875L636.5 304.375L630.875 314.375L628.375 321.25L627.75 324.375V329.375L629 331.875L632.75 332.5L639 328.75L645.25 322.5L652.125 312.5L657.125 303.125L660.25 293.75L659.625 291.25L654.625 287.5H652.75Z" fill="#FEFEFE"/>
<path d="M862.125 26.875H864V31.875L862.75 38.75V52.5L864.625 59.375L867.125 63.125L874 67.5L875.875 68.75V71.25L864 72.5L858.375 74.375L852.75 79.375L849 85.625L844.625 94.375L842.75 95L840.875 93.75L841.5 87.5L842.125 84.375V71.25L839.625 66.875L834.625 62.5L829 59.375V58.125L842.125 54.375L847.75 50.625L852.125 45.625L857.125 35.625L861.5 27.5L862.125 26.875ZM857.125 45.625L852.75 51.25L847.75 55.625L840.875 59.375L842.125 61.875L845.25 66.25L847.125 73.125L847.75 78.125L850.25 76.875L855.25 72.5L863.375 68.125L859.625 58.75L859 55.625L858.375 45.625H857.125Z" fill="#FEFEFE"/>
<path d="M586.5 526.875H588.375L587.75 530L581.5 540L582.125 543.125L587.125 550L590.25 553.125L595.875 546.875L599 541.875L598.375 538.75L592.125 530L590.875 527.5H595.875L599 530.625L602.125 535V536.25L605.25 533.125L609.625 527.5H614.625L614 530L607.75 539.375L607.125 541.875L613.375 550L615.875 554.375H610.25L605.25 548.75L603.375 546.25H602.125L596.5 553.75L595.25 554.375H584L579.625 550L577.125 546.875H575.25L570.25 553.75L569.625 554.375H564.625L565.875 551.25L572.125 543.125L572.75 540L567.75 532.5L565.875 529.375V527.5H570.25L573.375 531.25L576.5 535.625L579 533.125L583.375 527.5L586.5 526.875Z" fill="#FEFEFE"/>
<path d="M340.875 480L344.625 480.625L349.625 490L352.75 496.875L354 497.5L355.875 491.875L360.875 481.875L362.125 480.625H367.75V507.5H362.75L362.125 491.875L359.625 495L354 505L351.5 504.375L345.875 494.375L343.375 491.25V507.5H338.375V481.875L340.875 480Z" fill="#FEFEFE"/>
<path d="M497.75 527.5H502.125L504.625 530L510.25 541.875L510.875 543.75L512.125 544.375L513.375 540.625L518.375 530.625L520.875 527.5H525.25L525.875 528.125V554.375H520.875L520.25 553.75V538.125L512.75 551.875L509.625 551.25L502.125 538.125V548.125L501.5 554.375H497.125V528.125L497.75 527.5Z" fill="#FEFEFE"/>
<path d="M15.25 410L17.75 411.25L24 423.125L26.5 425.625L28.375 426.25L39.625 426.875L38.375 429.375L34 433.75L30.875 439.375L30.25 441.875V453.75L30.875 461.25L28.375 461.875L23.375 451.875L19 445.625L14 441.875L12.125 441.25L5.25 440.625L4 440L4.625 437.5L10.875 433.125L13.375 428.125L14.625 421.25V410.625L15.25 410ZM18.375 424.375L15.25 431.875L13.375 435L14 436.875L20.25 440.625L24.625 446.25L25.875 444.375L27.75 438.125L30.875 432.5V431.25L24 428.75L20.875 425.625L18.375 424.375Z" fill="#FEFEFE"/>
<path d="M533.375 527.5H537.125L540.875 533.125L545.875 543.75L547.125 544.375L548.375 540.625L554.625 528.75L555.875 527.5H560.25L560.875 554.375H555.875L555.25 538.125L548.375 550.625L547.125 551.875L544.625 551.25L542.75 548.75L537.75 538.75L537.125 538.125V553.75L536.5 554.375H532.125V531.25L533.375 527.5Z" fill="#FEFEFE"/>
<path d="M239.625 480L242.75 481.25L250.25 496.875L252.125 494.375L259 481.25L261.5 480L264.625 480.625V507.5H260.25V491.25H259L257.75 494.375L252.125 504.375L249.625 505L246.5 500L241.5 490.625L240.875 507.5H237.125L236.5 506.875V493.125L237.125 481.25L239.625 480Z" fill="#FEFEFE"/>
<path d="M569 480.625H572.75L575.875 483.75L580.875 490L585.875 497.5L586.5 496.875V486.25L587.125 480.625H592.125L592.75 481.25V506.25L592.125 507.5H587.75L584.625 504.375L576.5 493.75L574 490.625L573.375 507.5L571.5 508.125L568.375 506.875V484.375L569 480.625Z" fill="#FEFEFE"/>
<path d="M162.75 480L165.25 480.625V496.875L164.625 507.5H160.875L157.125 504.375L152.125 497.5L147.125 491.25L146.5 506.875L141.5 507.5L140.875 506.875V481.25L141.5 480.625H145.25L149 483.75L157.75 495.625L160.25 499.375V480.625L162.75 480Z" fill="#FEFEFE"/>
<path d="M657.75 480.625L660.875 481.875L669.625 493.125L672.75 497.5L673.375 481.875L674 480.625H678.375L679 481.25V493.75L678.375 507.5H674L669 501.875L661.5 491.875L659.625 490.625L660.25 493.75V506.875L659.625 507.5H655.25L654.625 502.5L655.25 481.875L657.75 480.625Z" fill="#FEFEFE"/>
<path d="M724 480.625L729 481.25L732.75 485.625L740.25 496.25L742.125 498.75L742.75 481.25L743.375 480.625H747.125L747.75 481.25L747.125 506.875L745.25 507.5L741.5 506.25L734 496.875L730.25 491.875L729.625 491.25L729 506.875L728.375 507.5H724L723.375 506.875V486.25L724 480.625Z" fill="#FEFEFE"/>
<path d="M377.125 527.5H390.25L395.875 529.375L400.25 534.375L401.5 537.5V545L399 550L394.625 553.75L392.75 554.375L378.375 555L376.5 554.375V528.125L377.125 527.5ZM382.125 532.5L381.5 533.125V550H389.625L393.375 548.125L395.875 545.625L396.5 539.375L394.625 535L390.875 532.5H382.125Z" fill="#FEFEFE"/>
<path d="M354.625 527.5H361.5L366.5 529.375L371.5 535L372.125 536.25V545L369.625 549.375L364.625 553.75L363.375 554.375L357.125 555L350.875 553.75L346.5 550L344.625 546.875L344 543.75V538.75L345.875 533.125L350.875 528.75L354.625 527.5ZM354.625 532.5L350.875 535L349 538.125L348.375 542.5L350.875 547.5L354.625 550L358.375 550.625L362.75 549.375L366.5 545L367.125 543.75V539.375L365.25 535.625L361.5 532.5H354.625Z" fill="#FEFEFE"/>
<path d="M437.75 480.625L440.875 481.25L446.5 487.5L450.875 493.75L454 498.75L454.625 481.25L455.25 480.625H459L459.625 481.25V490.625L459 507.5H455.25L452.125 504.375L443.375 493.125L441.5 491.25L440.875 507.5H436.5L435.875 483.125L436.5 481.25L437.75 480.625Z" fill="#FEFEFE"/>
<path d="M133.375 480L135.875 480.625L135.25 483.75L130.875 488.75L128.375 491.875L129 494.375L132.75 500L137.75 506.25L137.125 507.5H132.75L129.625 504.375L124 497.5L121.5 498.75L120.25 501.25L119.625 506.25L115.25 507.5L113.375 506.875V480.625H119L119.625 481.25V490.625L119 493.125L122.125 491.25L127.75 484.375L132.125 480.625L133.375 480Z" fill="#FEFEFE"/>
<path d="M307.125 527.5H319L324.625 528.75L327.75 531.25L329 535V540L326.5 544.375L324.625 545.625L325.875 548.75L329 553.125L328.375 554.375H323.375L319.625 548.125L319 547.5H312.125L311.5 553.75L310.875 554.375H306.5L307.125 527.5ZM311.5 532.5L310.875 539.375L311.5 542.5H320.875L323.375 540.625L324 535L321.5 532.5H311.5Z" fill="#FEFEFE"/>
<path d="M106.5 480L109 480.625L108.375 483.75L102.75 490L100.875 491.875L101.5 494.375L106.5 501.25L110.25 505.625V506.875L107.75 507.5L103.375 506.25L97.125 497.5L94 498.75L92.125 502.5L91.5 506.875H86.5V480.625H91.5L92.125 481.25V490L91.5 493.125L94.625 491.25L99 486.25L101.5 483.125L104.625 480.625L106.5 480Z" fill="#FEFEFE"/>
<path d="M405.875 527.5H425.25V532.5H410.875V538.75H424V543.125L411.5 543.75L410.875 550.625H425.25L425.875 551.25V554.375H406.5L405.875 553.75V527.5Z" fill="#FEFEFE"/>
<path d="M300.25 480L304.625 480.625L305.25 483.75L304.625 499.375L302.75 503.125L298.375 506.875L296.5 507.5H289L284.625 505.625L281.5 500.625L280.25 493.75V481.875L280.875 480.625H285.875L286.5 481.875V498.125L288.375 501.875L289 502.5H295.875L298.375 500L299 498.75L299.625 480.625L300.25 480Z" fill="#FEFEFE"/>
<path d="M389 480L397.75 480.625L402.75 483.125L404.625 486.25V493.75L402.125 497.5L400.875 498.75L398.375 499.375H389V507.5H384L383.375 506.875V484.375L384.625 480.625L389 480ZM391.5 485L389 486.875L388.375 495L389 495.625H396.5L399.625 493.75L400.25 492.5V488.125L397.75 485.625L391.5 485Z" fill="#FEFEFE"/>
<path d="M282.125 527.5H300.875L301.5 528.125V532.5L299.625 533.125L287.125 532.5L286.5 538.75H300.25V543.125L299.625 543.75H287.125V550L301.5 550.625V554.375H282.125V527.5Z" fill="#FEFEFE"/>
<path d="M256.5 527.5H267.75L274 528.75L277.125 531.875L278.375 536.25L277.75 541.25L275.875 544.375L272.125 546.25L268.375 546.875H261.5L260.875 554.375H256.5V527.5ZM261.5 532.5L260.875 535V541.875L261.5 542.5H269L272.125 540.625L272.75 539.375V534.375L270.875 532.5H261.5Z" fill="#FEFEFE"/>
<path d="M543.375 480.625H562.75L563.375 481.25V486.25L548.375 485.625V492.5H561.5V495.625L560.875 496.25H548.375L547.75 503.125H562.75L564 506.875L562.125 507.5H544L543.375 505.625V480.625Z" fill="#FEFEFE"/>
<path d="M606.5 480.625H614.625L619.625 483.125L620.875 485.625L619.625 488.125L613.375 486.25H607.125L604 487.5L602.75 490.625L602.125 492.5V496.875L604 500.625L606.5 502.5L612.75 503.125L615.875 501.875L616.5 500.625L617.125 494.375H620.875L622.125 498.75L620.875 504.375L617.75 506.875L615.25 507.5H605.875L600.875 504.375L597.125 498.75L596.5 497.5V491.25L599.625 485L604.625 481.25L606.5 480.625Z" fill="#FEFEFE"/>
<path d="M318.375 480.625H326.5L332.125 483.125L332.75 486.875L332.125 488.125L328.375 487.5L325.25 486.25H319L315.25 488.75L313.375 494.375L315.25 500L319 502.5L324.625 503.125L327.75 502.5L328.375 495L329 493.75H332.75V503.75L330.25 506.25L327.125 507.5H317.75L313.375 505L309.625 500.625L308.375 495L309.625 488.125L312.125 484.375L317.125 481.25L318.375 480.625Z" fill="#FEFEFE"/>
<path d="M818.375 0L820.875 0.625L820.25 5V11.875L822.125 16.875L827.125 21.25L829 23.125L827.125 25.625L817.75 27.5L814.625 30.625L811.5 35.625L808.375 35L807.125 27.5L804.625 23.75L799 20.625L799.625 18.75L807.75 15.625L810.875 12.5L814.625 6.875L817.75 0.625L818.375 0ZM815.25 13.125L809.625 18.125L807.125 20.625L810.25 25.625L811.5 27.5L814.625 26.25L820.25 22.5L816.5 13.125H815.25Z" fill="#FEFEFE"/>
<path d="M185.875 480.625H199L204 482.5L205.875 485L206.5 491.875L205.25 496.25L202.125 498.75L200.25 499.375L190.875 500L189.625 507.5H185.25V481.25L185.875 480.625ZM190.25 485.625L189.625 486.25V494.375L190.875 495.625H198.375L201.5 493.125L202.125 488.75L199.625 485.625H190.25Z" fill="#FEFEFE"/>
<path d="M211.5 480.625H224L229.625 482.5L232.125 485.625L232.75 491.875L230.875 496.25L228.375 498.75L225.875 499.375H215.875V506.875L215.25 507.5H211.5L210.875 493.75V481.875L211.5 480.625ZM216.5 485L215.25 487.5V493.75L215.875 495.625H224L227.125 493.125V487.5L225.25 485.625L221.5 485H216.5Z" fill="#FEFEFE"/>
<path d="M419 480L422.125 480.625L424.625 485L434 506.25V507.5H429L426.5 502.5L425.25 501.875H414L410.875 507.5H406.5L407.125 503.75L415.25 485L419 480ZM419 487.5L415.25 495.625V497.5L416.5 498.125H424.625L422.75 491.875L420.25 487.5H419Z" fill="#FEFEFE"/>
<path d="M637.125 480L639.625 480.625L642.75 485.625L649 500.625L651.5 506.875L650.875 507.5H647.125L645.875 506.875L644 501.875H631.5L629 506.875L627.75 507.5H622.75L625.875 502.5L632.125 486.875L635.25 481.25L637.125 480ZM637.125 486.875L633.375 495.625V497.5L636.5 498.125H641.5L642.125 496.875L639.625 488.75L637.125 486.875Z" fill="#FEFEFE"/>
<path d="M694.625 480.625H699L699.625 481.25L700.25 499.375L701.5 501.875L707.125 503.125L711.5 501.25L712.75 497.5L713.375 481.875L715.875 480.625H717.75V498.75L715.875 503.75L712.125 506.875L709.625 507.5H702.125L698.375 505.625L695.875 503.125L694 496.875V481.875L694.625 480.625Z" fill="#FEFEFE"/>
<path d="M475.25 480.625H483.375L488.375 483.125L489 487.5L487.125 488.125L482.125 486.25H475.875L472.125 488.75L470.875 491.875V497.5L472.75 500.625L475.25 502.5L477.75 503.125H482.125L484.625 502.5L485.875 494.375L488.375 493.75L489.625 497.5L489 504.375L485.875 506.875L482.75 507.5H476.5L470.875 505.625L467.75 502.5L465.25 497.5V491.25L467.75 485.625L472.125 481.875L475.25 480.625Z" fill="#FEFEFE"/>
<path d="M505.875 480L508.375 480.625L510.25 483.75L516.5 498.125L520.25 505.625V507.5H515.25L513.375 501.875H499.625L497.125 506.875L496.5 507.5H492.75L493.375 505L500.25 488.125L504 481.25L505.875 480ZM505.875 487.5L501.5 496.875L504 498.125H510.875L509.625 492.5L507.125 487.5H505.875Z" fill="#FEFEFE"/>
<path d="M807.75 480L814.625 481.25L818.375 483.75L819 486.25L817.125 488.125L814 487.5L810.875 486.25H805.875L802.125 488.75L800.25 492.5V496.25L803.375 501.25L805.875 502.5H812.125L815.25 501.25H818.375L817.75 504.375L814.625 506.875L810.875 508.125H805.25L799 505L795.25 498.75V490.625L797.75 485.625L800.875 482.5L804.625 480.625L807.75 480Z" fill="#FEFEFE"/>
<path d="M564 260.625L567.75 261.875L569.625 265V270L566.5 275.625L562.75 278.75L559 280.625L555.875 280L553.375 276.25L554 271.25L557.125 265.625L564 260.625Z" fill="#FEFEFE"/>
<path d="M762.75 480.625H784V485L783.375 485.625H775.875V506.875L775.25 507.5H770.875L770.25 505.625L770.875 485.625L762.125 485L762.75 480.625Z" fill="#FEFEFE"/>
<path d="M59.625 435L62.75 435.625L65.875 438.75L73.375 440.625L72.75 443.125L69.625 449.375V461.25H67.75L64.625 456.25L60.25 452.5L54 450.625V448.125L57.125 446.25L58.375 443.75L59 436.875L59.625 435ZM62.75 441.875L61.5 442.5L60.25 446.875L62.75 450L66.5 451.875L68.375 446.25L67.75 443.125L62.75 441.875Z" fill="#FEFEFE"/>
<path d="M437.75 527.5H443.375L444 528.125V554.375H437.75V527.5Z" fill="#FEFEFE"/>
<path d="M526.5 480L528.375 480.625V503.125L539.625 503.75V506.875L524 507.5L523.375 504.375V481.25L526.5 480Z" fill="#FEFEFE"/>
<path d="M452.125 527.5H457.125L457.75 528.125V554.375H452.125V527.5Z" fill="#FEFEFE"/>
<path d="M754.625 480.625H759V493.125L758.375 507.5H754V481.25L754.625 480.625Z" fill="#FEFEFE"/>
<path d="M334.625 527.5H339L339.625 553.75L339 554.375H334.625V527.5Z" fill="#FEFEFE"/>
<path d="M620.25 527.5H624V554.375H619.625V529.375L620.25 527.5Z" fill="#FEFEFE"/>
<path d="M645.25 527.5L647.125 528.125V554.375H642.75V528.125L645.25 527.5Z" fill="#FEFEFE"/>
<path d="M632.125 527.5H635.25L635.875 528.125V553.75L635.25 554.375H631.5V528.125L632.125 527.5Z" fill="#FEFEFE"/>
<path d="M170.25 493.75H178.375L180.25 494.375L180.875 497.5L180.25 498.125H171.5L170.25 497.5V493.75Z" fill="#FEFEFE"/>
<path d="M472.75 541.25H480.875L481.5 543.75L480.875 544.375H472.75L472.125 541.875L472.75 541.25Z" fill="#FEFEFE"/>
</g>
<defs>
<filter id="filter0_d_1995_64" x="0" y="0" width="917.375" height="563" filterUnits="userSpaceOnUse" color-interpolation-filters="sRGB">
<feFlood flood-opacity="0" result="BackgroundImageFix"/>
<feColorMatrix in="SourceAlpha" type="matrix" values="0 0 0 0 0 0 0 0 0 0 0 0 0 0 0 0 0 0 127 0" result="hardAlpha"/>
<feOffset dy="4"/>
<feGaussianBlur stdDeviation="2"/>
<feComposite in2="hardAlpha" operator="out"/>
<feColorMatrix type="matrix" values="0 0 0 0 0 0 0 0 0 0 0 0 0 0 0 0 0 0 0.25 0"/>
<feBlend mode="normal" in2="BackgroundImageFix" result="effect1_dropShadow_1995_64"/>
<feBlend mode="normal" in="SourceGraphic" in2="effect1_dropShadow_1995_64" result="shape"/>
</filter>
</defs>
</svg>
